<svg xmlns="http://www.w3.org/2000/svg" width="64" height="64" viewBox="0 0 128 128"><path fill="#fff" d="M1752 1552h-104a11.786 11.786 0 0 0-12 12v72a11.786 11.786 0 0 0 12 12h104a11.786 11.786 0 0 0 12-12v-72a11.786 11.786 0 0 0-12-12zm-104 8h104a3.779 3.779 0 0 1 4 4v13.6l-56 30-56-30V1564a3.779 3.779 0 0 1 4-4zm108 26.8v30.8l-30-14.8zm-82 15.6l-30 15.2v-30.8zm78 37.6h-104a3.779 3.779 0 0 1-4-4v-9.6l37.6-18.8-.4-1.2 18.8 10 18.8-10-.4 1.2 37.6 18.8v9.6a3.779 3.779 0 0 1-4 4z" transform="translate(-1636 -1536)"/></svg>
