<svg xmlns="http://www.w3.org/2000/svg" width="64" height="64" viewBox="0 0 128 128"><path fill="#fff" d="M900.006 1136.66c-35.313 0-63.949 28.37-63.949 63.37a63.432 63.432 0 0 0 43.738 60.12c3.2.58 4.365-1.38 4.365-3.06 0-1.5-.055-5.48-.086-10.77-17.79 3.83-21.543-8.5-21.543-8.5-2.908-7.32-7.1-9.26-7.1-9.26-5.807-3.94.439-3.86.439-3.86 6.418.45 9.8 6.53 9.8 6.53 5.705 9.69 14.968 6.89 18.612 5.27.581-4.1 2.233-6.89 4.06-8.47-14.2-1.6-29.13-7.04-29.13-31.32a24.357 24.357 0 0 1 6.583-17c-.658-1.6-2.853-8.05.627-16.77 0 0 5.369-1.7 17.586 6.5a60.962 60.962 0 0 1 32.021 0c12.21-8.2 17.57-6.5 17.57-6.5 3.489 8.72 1.294 15.17.636 16.77a24.315 24.315 0 0 1 6.574 17c0 24.34-14.953 29.7-29.2 31.27 2.3 1.95 4.342 5.82 4.342 11.73 0 8.47-.079 15.31-.079 17.38 0 1.7 1.152 3.67 4.4 3.05a63.433 63.433 0 0 0 43.7-60.11c-.009-35-28.645-63.37-63.966-63.37z" transform="translate(-836 -1136)"/></svg>
