<svg xmlns="http://www.w3.org/2000/svg" width="64" height="64" viewBox="0 0 128 128"><path fill="#fff" d="M1340.04 1153h-80.11a6.857 6.857 0 0 0-6.93 6.78v80.44a6.864 6.864 0 0 0 6.93 6.78h80.11a6.877 6.877 0 0 0 6.96-6.78v-80.44a6.871 6.871 0 0 0-6.96-6.78zm-59.16 80.1h-13.96v-44.86h13.96v44.86zm-6.97-50.99a8.085 8.085 0 1 1 8.08-8.08 8.079 8.079 0 0 1-8.08 8.08zm59.19 50.99h-13.94v-21.82c0-5.2-.09-11.89-7.24-11.89-7.26 0-8.36 5.67-8.36 11.52v22.19h-13.93v-44.86h13.36v6.13h.2c1.86-3.52 6.4-7.24 13.18-7.24 14.13 0 16.73 9.28 16.73 21.37v24.6z" transform="translate(-1236 -1136)"/></svg>
