<svg xmlns="http://www.w3.org/2000/svg" width="64" height="64" viewBox="0 0 128 128"><path fill="#fff" d="M2500.84 754.991c-14.95 0-37.04.9-43.65 1.127-7.18.642-9.84 1.018-13.77 4.385-6 5.332-7.42 15.808-7.42 31.835v15.254c0 18.294 2.43 27.588 6.43 30.987a17.855 17.855 0 0 0 10.73 4.753c1.2.181 9.64 1.677 47.12 1.677 23.37 0 43.46-1.1 45.54-1.371 3.33-.422 8.13-1.033 11.75-5.059 5.36-6.095 6.43-16.214 6.43-30.874v-17.769c0-9.489-.53-22.9-6.43-28.515-4.47-3.785-6.1-4.855-15.35-5.321-2.62-.129-25.44-1.109-41.38-1.109zM2487 782.108l34.52 17.822-34.52 17.962v-35.784z" transform="translate(-2436 -736)"/></svg>
